<?xml version='1.0' encoding='utf-8'?>
<!-- Generator: Adobe Illustrator 22.0.0, SVG Export Plug-In . SVG Version: 6.00 Build 0)  -->
<svg baseProfile="tiny" id="Layer_1" version="1.1" viewBox="0 0 36 36" x="0px" xml:space="preserve" xmlns="http://www.w3.org/2000/svg" xmlns:xlink="http://www.w3.org/1999/xlink" y="0px">
 <path d="M31.4,11&#xa;&#x9;c1.1,2.2,1.6,4.5,1.6,7c0,8.3-6.7,15-15,15S3,26.3,3,18S9.7,3,18,3c2.7,0,5.2,0.7,7.4,2" fill="none" stroke="#000000" stroke-linecap="round" stroke-linejoin="round" stroke-opacity="1" stroke-width="1.25"/>
 <path d="M26.7,15.5&#xa;&#x9;c0.2,0.9,0.4,1.6,0.4,2.5c0,5.1-4,9-9,9s-9-4-9-9s4-9,9-9" fill="none" stroke="#000000" stroke-linecap="round" stroke-linejoin="round" stroke-opacity="1" stroke-width="1.25"/>
 <circle cx="18" cy="18" fill="none" r="3.1" stroke="#000000" stroke-linecap="round" stroke-linejoin="round" stroke-opacity="1" stroke-width="1.25"/>
 <polyline fill="none" points="32.8,3.7 &#xa;&#x9;24.5,12 21.8,9.3 " stroke="#000000" stroke-linecap="round" stroke-linejoin="round" stroke-opacity="1" stroke-width="1.25"/>
</svg>
